# AST/ASF file generated using VICON BodyLanguage
# -----------------------------------------------
:version 1.10
:name VICON
:units
  mass 1.0
  length 0.45
  angle deg
:documentation
   .ast/.asf automatically generated from VICON data using
   VICON BodyBuilder and BodyLanguage model FoxedUp or BRILLIANT.MOD
:root
   order TX TY TZ RX RY RZ
   axis XYZ
   position 0 0 0  
   orientation 0 0 0 
:bonedata
  begin
     id 1 
     name lhipjoint
     direction 0.541323 -0.757556 0.364798 
     length 2.47576 
     axis 0 0 0  XYZ
  end
  begin
     id 2 
     name lfemur
     direction 0.34202 -0.939693 0  
     length 7.46493  
     axis 0 0 20  XYZ
    dof rx ry rz
    limits (-160.0 20.0)
           (-70.0 70.0)
           (-60.0 70.0)
  end
  begin
     id 3 
     name ltibia
     direction 0.34202 -0.939693 0   
     length 7.73805   
     axis 0 0 20   XYZ
    dof rx
    limits (-10.0 170.0)
  end
  begin
     id 4 
     name lfoot
     direction 0.107174 -0.294458 0.949636   
     length 2.25864   
     axis -90 7.62852e-016 20   XYZ
    dof rx rz
    limits (-45.0 90.0)
           (-70.0 20.0)
  end
  begin
     id 5 
     name ltoes
     direction 1.53606e-011 -4.21934e-011 1   
     length 1.12451   
     axis -90 7.62852e-016 20   XYZ
    dof rx
    limits (-90.0 20.0)
  end
  begin
     id 6 
     name rhipjoint
     direction -0.524745 -0.766967 0.36933   
     length 2.44538  
     axis 0 0 0  XYZ 
  end
  begin
     id 7 
     name rfemur
     direction -0.34202 -0.939693 0   
     length 7.61604   
     axis 0 0 -20   XYZ
    dof rx ry rz
    limits (-160.0 20.0)
           (-70.0 70.0)
           (-70.0 60.0)
  end
  begin
     id 8 
     name rtibia
     direction -0.34202 -0.939693 0   
     length 7.61056   
     axis 0 0 -20   XYZ
    dof rx
    limits (-10.0 170.0)
 end
 begin
     id 9 
     name rfoot
     direction -0.12616 -0.346623 0.929482   
     length 2.46372  
     axis -90 -7.62852e-016 -20   XYZ
    dof rx rz
    limits (-45.0 90.0)
           (-20.0 70.0)
  end
  begin
     id 10 
     name rtoes
     direction -1.53531e-011 -4.22004e-011 1   
     length 1.21611   
     axis -90 -7.62852e-016 -20   XYZ
    dof rx
    limits (-90.0 20.0)
  end
  begin
     id 11 
     name lowerback
     direction -0.000778023 0.997293 -0.0735223   
     length 2.06139   
     axis 0 0 0   XYZ
    dof rx ry rz
    limits (-20.0 45.0)
           (-30.0 30.0)
           (-30.0 30.0)
  end
  begin
     id 12 
     name upperback
     direction 0.0222598 0.999722 -0.0078355   
     length 2.06383   
     axis 0 0 0   XYZ
    dof rx ry rz
    limits (-20.0 45.0)
           (-30.0 30.0)
           (-30.0 30.0)
  end
  begin
     id 13 
     name thorax
     direction 0.0219654 0.999405 0.0265994   
     length 2.07163   
     axis 0 0 0   XYZ
    dof rx ry rz
    limits (-20.0 45.0)
           (-30.0 30.0)
           (-30.0 30.0)
  end
  begin
     id 14 
     name lowerneck
     direction 0.0213282 0.988147 0.15202   
     length 1.75969   
     axis 0 0 0   XYZ
    dof rx ry rz
    limits (-20.0 45.0)
           (-30.0 30.0)
           (-30.0 30.0)
  end
  begin
     id 15 
     name upperneck
     direction -0.0546456 0.982624 -0.177379   
     length 1.79244   
     axis 0 0 0   XYZ
    dof rx ry rz
    limits (-20.0 45.0)
           (-30.0 30.0)
           (-30.0 30.0)
  end
  begin
     id 16
     name head
     direction -0.0199987 0.996855 -0.076686  
     length 1.80555  
     axis 0 0 0   XYZ
    dof rx ry rz
    limits (-20.0 45.0)
           (-30.0 30.0)
           (-30.0 30.0)
  end
  begin
     id 17 
     name lclavicle
     direction 0.929565 0.363219 -0.063096  
     length 3.55722  
     axis 0 0 0   XYZ
    dof ry rz
    limits (-20.0 10.0)
           (0.0 20.0)
  end
  begin
     id 18 
     name lhumerus
     direction 1 -4.48993e-011 -2.36203e-027   
     length 4.92785   
     axis 180 -30 -90   XYZ
    dof rx ry rz
    limits (-60.0 90.0)
           (-90.0 90.0)
           (-90.0 90.0)
  end
  begin
     id 19
     name lradius
     direction 1 -4.48947e-011 2.02997e-027   
     length 3.44052   
     axis 180 -30 -90   XYZ
    dof rx
    limits (-10.0 170.0)
  end
  begin
     id 20
     name lwrist
     direction 1 -4.48962e-011 1.45991e-027   
     length 1.72026   
     axis 1.49639e-024 90 90   XYZ
    dof ry
    limits (-180.0 0.0)
 end
  begin
     id 21 
     name lhand
     direction 1 -4.48984e-011 2.91906e-027   
     length 0.654326   
     axis -1.863e-015 90 90   XYZ
    dof rx rz
    limits (-90.0 90.0)
           (-45.0 45.0)
  end
  begin
     id 22 
     name lfingers
     direction 1 -4.48961e-011 5.83968e-027   
     length 0.527534   
     axis -3.72598e-015 90 90   XYZ
    dof rx
    limits (0.0 90.0)
  end
  begin
     id 23
     name lthumb
     direction 0.707107 -6.34963e-011 0.707107   
     length 0.757437   
     axis -90 45 -6.68868e-015   XYZ
    dof rx rz
    limits (-45.0 45.0)
           (-45.0 45.0)
  end
  begin
     id 24 
     name rclavicle
     direction -0.902944 0.422599 -0.0781198   
     length 3.54432  
     axis 0 0 0   XYZ 
    dof ry rz
    limits (-10.0 20.0)
           (-20.0 0.0)
  end
  begin
     id 25 
     name rhumerus
     direction -1 -4.48953e-011 -4.75835e-028  
     length 5.09181   
     axis 180 30 90   XYZ
    dof rx ry rz
    limits (-90.0 60.0)
           (-90.0 90.0)
           (-90.0 90.0)
  end
  begin
     id 26 
     name rradius
     direction -1 -4.48986e-011 -3.25889e-027   
     length 3.49865   
     axis 180 30 90   XYZ
    dof rx
    limits (-10.0 170.0)
  end
  begin
     id 27 
     name rwrist
     direction -1 -4.48963e-011 1.45989e-027   
     length 1.74933   
     axis 1.49639e-024 -90 -90   XYZ
    dof ry
    limits (-180.0 0.0)
  end
  begin
     id 28
     name rhand
     direction -1 -4.49003e-011 2.91844e-027   
     length 0.66641   
     axis -1.863e-015 -90 -90   XYZ
    dof rx rz
    limits (-90.0 90.0)
           (-45.0 45.0)
  end
  begin
     id 29
     name rfingers
     direction -1 -4.48973e-011 5.83886e-027   
     length 0.537277   
     axis -3.72598e-015 -90 -90   XYZ
    dof rx
    limits (0.0 90.0)
  end
  begin
     id 30
     name rthumb
     direction -0.707107 -6.34976e-011 0.707107   
     length 0.771425   
     axis -90 -45 6.68868e-015   XYZ
    dof rx rz
    limits (-45.0 45.0)
           (-45.0 45.0)
  end
:hierarchy
  begin
    root lhipjoint rhipjoint lowerback
    lhipjoint lfemur
    lfemur ltibia
    ltibia lfoot
    lfoot ltoes
    rhipjoint rfemur
    rfemur rtibia
    rtibia rfoot
    rfoot rtoes
    lowerback upperback
    upperback thorax
    thorax lowerneck lclavicle rclavicle
    lowerneck upperneck
    upperneck head
    lclavicle lhumerus
    lhumerus lradius
    lradius lwrist
    lwrist lhand lthumb
    lhand lfingers
    rclavicle rhumerus
    rhumerus rradius
    rradius rwrist
    rwrist rhand rthumb
    rhand rfingers
  end

#!OML:ASF H:\LiuWeirdWalks\Patient Classification 1\Patient 1\Session 1\male.ASF
:FULLY-SPECIFIED
:DEGREES
70
root 0.179452 17.7316 -27.664 2.54246 5.53028 -2.64673
lowerback 0.253045 -0.545107 0.224965
upperback -2.49888 -0.682549 1.71717
thorax -2.68716 -0.324164 1.6547
lowerneck -19.4406 -2.35767 9.01953
upperneck 28.3281 -3.93329 -8.19411
head 12.1802 -1.89025 -5.29896
rclavicle -4.36705e-015 -1.49089e-015
rhumerus -33.3022 -10.2878 -79.8246
rradius 23.255
rwrist -2.63021
rhand -15.3874 -3.19637
rfingers 7.12502
rthumb 10.7911 -32.8992
lclavicle -4.36705e-015 -1.49089e-015
lhumerus -33.1873 -0.955297 86.8621
lradius 24.898
lwrist 5.29137
lhand -10.9543 -0.042652
lfingers 7.12502
lthumb 15.0645 29.3892
rfemur -10.3245 -2.70782 18.5855
rtibia 33.2532
rfoot -15.9624 -24.8058
rtoes -4.29791
lfemur -13.5919 -0.790872 -18.4329
ltibia 34.6492
lfoot -16.5999 14.5901
ltoes -4.73727
71
root 0.197478 17.7294 -27.6712 2.54733 5.57798 -2.60961
lowerback 0.3256 -0.551201 0.202859
upperback -2.54019 -0.689328 1.7255
thorax -2.77012 -0.326488 1.67717
lowerneck -19.2519 -2.25572 9.07232
upperneck 28.3909 -3.77466 -8.22584
head 12.1819 -1.81413 -5.29501
rclavicle 1.95865e-014 -1.59028e-015
rhumerus -33.3721 -10.2002 -79.6925
rradius 23.2279
rwrist -2.58675
rhand -15.405 -3.20419
rfingers 7.12502
rthumb 10.7741 -32.9079
lclavicle 1.95865e-014 -1.59028e-015
lhumerus -33.2477 -1.02891 86.9955
lradius 25.0429
lwrist 5.38751
lhand -10.9477 -0.113177
lfingers 7.12502
lthumb 15.0708 29.3182
rfemur -10.3579 -2.72771 18.4776
rtibia 33.2885
rfoot -15.9256 -24.8283
rtoes -4.34766
lfemur -13.6497 -0.842794 -18.553
ltibia 34.7025
lfoot -16.5838 14.6315
ltoes -4.59133
72
root 0.216229 17.7271 -27.6783 2.55324 5.6249 -2.57053
lowerback 0.395537 -0.540789 0.182645
upperback -2.56241 -0.674771 1.7188
thorax -2.83271 -0.31851 1.68231
lowerneck -19.12 -2.17867 9.11862
upperneck 28.4537 -3.66369 -8.22903
head 12.1913 -1.75653 -5.28772
rclavicle 2.17421e-016 -5.76476e-015
rhumerus -33.4086 -10.1963 -79.5487
rradius 23.1848
rwrist -2.51233
rhand -15.4193 -3.21086
rfingers 7.12502
rthumb 10.7603 -32.9153
lclavicle 2.17421e-016 -5.76476e-015
lhumerus -33.2634 -1.17977 87.1431
lradius 25.1911
lwrist 5.50901
lhand -10.9459 -0.171605
lfingers 7.12502
lthumb 15.0726 29.2597
rfemur -10.3953 -2.74888 18.3642
rtibia 33.3306
rfoot -15.8943 -24.8466
rtoes -4.3928
lfemur -13.7034 -0.893436 -18.6769
ltibia 34.7493
lfoot -16.5745 14.6684
ltoes -4.46532
73
root 0.235616 17.7246 -27.6855 2.56069 5.67183 -2.53499
lowerback 0.464032 -0.489798 0.176891
upperback -2.5679 -0.606925 1.67709
thorax -2.87919 -0.284823 1.64155
lowerneck -19.0415 -2.15785 9.17074
upperneck 28.5176 -3.65555 -8.1847
head 12.2019 -1.73826 -5.27924
rclavicle -4.19311e-015 -1.53064e-014
rhumerus -33.4379 -10.367 -79.3814
rradius 23.1333
rwrist -2.39928
rhand -15.428 -3.21489
rfingers 7.12502
rthumb 10.7519 -32.9197
lclavicle -4.19311e-015 -1.53064e-014
lhumerus -33.229 -1.50308 87.313
lradius 25.3398
lwrist 5.66883
lhand -10.9516 -0.21301
lfingers 7.12502
lthumb 15.0671 29.2187
rfemur -10.4363 -2.76781 18.2523
rtibia 33.3765
rfoot -15.8687 -24.8637
rtoes -4.42902
lfemur -13.7562 -0.937845 -18.7977
ltibia 34.7918
lfoot -16.5717 14.6974
ltoes -4.36515
74
root 0.255581 17.7222 -27.6928 2.56951 5.71833 -2.50891
lowerback 0.530964 -0.413395 0.18433
upperback -2.55999 -0.505598 1.61694
thorax -2.91201 -0.23508 1.5731
lowerneck -19.0082 -2.17373 9.22237
upperneck 28.5823 -3.71425 -8.10931
head 12.2157 -1.74603 -5.26954
rclavicle -1.00076e-014 1.19271e-015
rhumerus -33.456 -10.6521 -79.1954
rradius 23.0742
rwrist -2.25847
rhand -15.4307 -3.21718
rfingers 7.12502
rthumb 10.7494 -32.9222
lclavicle -1.00076e-014 1.19271e-015
lhumerus -33.1618 -1.93543 87.4996
lradius 25.4936
lwrist 5.8557
lhand -10.967 -0.239833
lfingers 7.12502
lthumb 15.0523 29.193
rfemur -10.4801 -2.7809 18.1495
rtibia 33.4229
rfoot -15.8468 -24.8831
rtoes -4.45567
lfemur -13.8111 -0.974023 -18.9084
ltibia 34.8322
lfoot -16.5733 14.7184
ltoes -4.28926
75
root 0.276145 17.7197 -27.7003 2.5794 5.76325 -2.49403
lowerback 0.597933 -0.318343 0.203404
upperback -2.54421 -0.379547 1.54555
thorax -2.93725 -0.173486 1.48555
lowerneck -19.0011 -2.22166 9.26619
upperneck 28.651 -3.827 -8.00903
head 12.2316 -1.77548 -5.2575
rclavicle -2.30093e-014 -1.49089e-015
rhumerus -33.4702 -11.0217 -78.9925
rradius 23.0097
rwrist -2.09747
rhand -15.4288 -3.21854
rfingers 7.12502
rthumb 10.7512 -32.9234
lclavicle -2.30093e-014 -1.49089e-015
lhumerus -33.0798 -2.44738 87.6993
lradius 25.6563
lwrist 6.06353
lhand -10.9887 -0.253611
lfingers 7.12502
lthumb 15.0314 29.1808
rfemur -10.526 -2.78726 18.0578
rtibia 33.4677
rfoot -15.8266 -24.9044
rtoes -4.47266
lfemur -13.8694 -1.0017 -19.0073
ltibia 34.8715
lfoot -16.577 14.7328
ltoes -4.23082
76
root 0.297379 17.7174 -27.7079 2.58929 5.8048 -2.48871
lowerback 0.666057 -0.215735 0.229905
upperback -2.52371 -0.243355 1.47241
thorax -2.95815 -0.107076 1.39145
lowerneck -19.0007 -2.2983 9.27412
upperneck 28.7221 -3.97942 -7.87852
head 12.2473 -1.82243 -5.23346
rclavicle 3.9788e-015 1.03368e-014
rhumerus -33.4795 -11.4298 -78.7783
rradius 22.9416
rwrist -1.92723
rhand -15.4243 -3.21902
rfingers 7.12502
rthumb 10.7555 -32.9237
lclavicle 3.9788e-015 1.03368e-014
lhumerus -32.9974 -2.99219 87.9066
lradius 25.8307
lwrist 6.28354
lhand -11.0135 -0.261044
lfingers 7.12502
lthumb 15.0075 29.1751
rfemur -10.5725 -2.78835 17.9744
rtibia 33.5101
rfoot -15.8063 -24.9249
rtoes -4.48214
lfemur -13.9299 -1.02315 -19.0973
ltibia 34.9099
lfoot -16.5811 14.7447
ltoes -4.18138
77
root 0.319339 17.7151 -27.7156 2.59864 5.84111 -2.48905
lowerback 0.736853 -0.113158 0.258626
upperback -2.50064 -0.107078 1.40262
thorax -2.97742 -0.0406603 1.29934
lowerneck -18.9928 -2.40009 9.22899
upperneck 28.7945 -4.16044 -7.71402
head 12.2618 -1.88322 -5.19098
rclavicle 1.48467e-015 8.84592e-015
rhumerus -33.483 -11.8449 -78.5583
rradius 22.8719
rwrist -1.75668
rhand -15.4192 -3.21929
rfingers 7.12502
rthumb 10.7605 -32.9237
lclavicle 1.48467e-015 8.84592e-015
lhumerus -32.9223 -3.53904 88.1163
lradius 26.0163
lwrist 6.51037
lhand -11.0358 -0.266768
lfingers 7.12502
lthumb 14.986 29.171
rfemur -10.6192 -2.78619 17.8944
rtibia 33.55
rfoot -15.7854 -24.9412
rtoes -4.48549
lfemur -13.9908 -1.03984 -19.1832
ltibia 34.9468
lfoot -16.5847 14.7566
ltoes -4.13387
78
root 0.342002 17.7129 -27.7234 2.60678 5.87121 -2.49194
lowerback 0.810709 -0.0146587 0.284492
upperback -2.47625 0.0238672 1.33913
thorax -2.99651 0.0232268 1.21524
lowerneck -18.9704 -2.5182 9.13583
upperneck 28.867 -4.35603 -7.523
head 12.2743 -1.95204 -5.13161
rclavicle -1.70349e-014 -9.59136e-015
rhumerus -33.4811 -12.2514 -78.3347
rradius 22.8021
rwrist -1.5908
rhand -15.4138 -3.21921
rfingers 7.12502
rthumb 10.7656 -32.9233
lclavicle -1.70349e-014 -9.59136e-015
lhumerus -32.8579 -4.07101 88.3262
lradius 26.2106
lwrist 6.74075
lhand -11.0529 -0.277044
lfingers 7.12502
lthumb 14.9695 29.1619
rfemur -10.6651 -2.78131 17.8142
rtibia 33.588
rfoot -15.7643 -24.9525
rtoes -4.48437
lfemur -14.05 -1.0522 -19.2688
ltibia 34.9815
lfoot -16.5882 14.7693
ltoes -4.08288
79
root 0.365325 17.7108 -27.7314 2.61381 5.89603 -2.49544
lowerback 0.887851 0.0730591 0.302873
upperback -2.45178 0.14056 1.28653
thorax -3.01678 0.0803114 1.14682
lowerneck -18.9371 -2.62449 9.03008
upperneck 28.9332 -4.52931 -7.33278
head 12.2856 -2.01244 -5.06666
rclavicle -1.23153e-014 -5.31749e-015
rhumerus -33.4719 -12.6249 -78.1125
rradius 22.7345
rwrist -1.43652
rhand -15.409 -3.22069
rfingers 7.12502
rthumb 10.7702 -32.9246
lclavicle -1.23153e-014 -5.31749e-015
lhumerus -32.8047 -4.56352 88.532
lradius 26.4082
lwrist 6.96775
lhand -11.064 -0.295475
lfingers 7.12502
lthumb 14.9589 29.1443
rfemur -10.7099 -2.77462 17.732
rtibia 33.6248
rfoot -15.746 -24.9589
rtoes -4.47725
lfemur -14.1067 -1.0588 -19.3558
ltibia 35.0138
lfoot -16.593 14.7802
ltoes -4.02644
80
root 0.389203 17.7088 -27.7394 2.62047 5.91706 -2.50001
lowerback 0.966999 0.138223 0.308316
upperback -2.42793 0.227418 1.25555
thorax -3.03819 0.123093 1.10873
lowerneck -18.903 -2.67764 8.95615
upperneck 28.984 -4.6237 -7.18371
head 12.297 -2.04007 -5.01129
rclavicle 5.46658e-016 5.36719e-015
rhumerus -33.4469 -12.9219 -77.898
rradius 22.6701
rwrist -1.30191
rhand -15.4045 -3.2284
rfingers 7.12502
rthumb 10.7746 -32.9321
lclavicle 5.46658e-016 5.36719e-015
lhumerus -32.7647 -4.96963 88.7294
lradius 26.606
lwrist 7.17998
lhand -11.0701 -0.323981
lfingers 7.12502
lthumb 14.9529 29.1162
rfemur -10.7542 -2.76553 17.6493
rtibia 33.661
rfoot -15.7327 -24.9629
rtoes -4.463
lfemur -14.1617 -1.05687 -19.443
ltibia 35.0438
lfoot -16.6009 14.7852
ltoes -3.96391
